<svg id="Layer_1" data-name="Layer 1" xmlns="http://www.w3.org/2000/svg" viewBox="0 0 752.34089 221.00012">
  <defs>
    <style>
      .cls-1 {
        fill: #ffffff;
      }
    </style>
  </defs>
  <title>rick-and-morty-logo-001</title>
  <g>
    <path class="cls-1" d="M157.90958,432.85829c-5.15192-3.717-10.31906-9.11711-12.18218-13.87056-3.57784-9.12809-11.33887-14.64863-15.55852-22.98818-2.79252-5.51911-11.05141-4.84078-15.93941-8.89739-.99743-.82794-2.48225-1.36433-3.01785-2.73053a13.63349,13.63349,0,0,0-9.18915-8.65047c5.95044-1.42174,6.32114-7.87391,11.36485-8.46706,5.76746-.67833,8.22215-4.573,10.2694-9.26415,3.29627-7.55286,6.04387-15.37769,8.89423-23.04192,2.51841-6.77142,1.40072-14.90065,1.8238-22.434a2.23282,2.23282,0,0,0-.77211-1.54415c-3.5899-3.06277-3.42113-6.99926-3.09434-11.2255.57592-7.44932-2.38078-10.08506-9.707-8.9802-2.07437.31286-4.13167.87257-4.32182-2.08693-.28962-4.50489-2.90878-5.51854-6.7969-4.99671-2.25.30195-4.14042-.53072-6.06411-1.68143q-5.53059-3.30843-11.30931-6.19786c-7.04949-3.52152-13.77549-3.72316-20.16781,1.814-3.22566,2.794-6.66558,6.54618-10.95612,6.40768-7.85834-.25373-15.05393.11726-20.558,6.63258-.26062.30841-1.17654.27382-1.70066.11445-3.2123-.97641-3.91754,1.7285-5.26745,3.49589v5.87768c5.49737,3.71828,7.34011,8.2965,5.11289,15.02465-1.62646,4.913-.94907,10.26215,3.50307,14.0191,4.4642,3.76693,4.34709,8.23607,4.08488,13.704-.34515,7.19328-.31817,15.33313,2.704,21.52633,3.86114,7.91294,3.98514,16.41445,6.9031,24.33a14.18074,14.18074,0,0,1-.443,10.3888c-1.29351,2.92714-.58971,5.16563,1.11669,7.60661,2.68719,3.84364,4.00767,7.83466,1.58728,12.57728-1.80772,3.5421-.6151,7.338.909,10.78333,1.96588,4.444,5.393,8.61036,6.02019,13.19331,1.00834,7.36708,3.33416,14.165,5.74034,21.04649.44088,1.261.14509,2.78.58755,4.04.72748,2.072,2.02271,4.31415,4.3976,4.09041,2.9613-.279,2.33558-3.06291,2.38466-5.14274.07233-3.072-.63865-6.24745,2.34734-8.64322,3.24216-2.60108,3.33961-5.93538,1.59274-9.51494-1.22721-2.51454-1.97248-5.06359-.76006-7.891,1.8126-4.22739.66017-8.01879-2.00018-11.52789-3.06248-4.03924-4.325-8.19667-1.37043-12.98679.98724-1.60042,1.942-3.886.94419-5.62323-3.2314-5.62595,1.08211-12.39357-2.99417-17.89352a2.80651,2.80651,0,0,1,1.26682-4.02568c2.02629-1.11677,2.8307.60621,3.81507,1.66944,2.04682,2.21093,4.257,4.56789,7.44932,3.8897,4.03709-.85757,5.48057,1.57537,7.42262,4.19956,2.30644,3.11636,3.39759,9.43213,9.70654,4.79377.30683-.22567,1.17941.01565,1.60881.30562,4.15721,2.80681,9.51823,4.13569,10.75964,10.30521.74212,3.68892,3.34794,5.78533,7.47516,3.7995,1.80829-.87013,2.99746-.23816,3.79469,1.43853,2.466,5.18665,5.0605,10.15322,11.3706,11.74488,1.00532.25359,1.77127,2.00714,2.374,3.205,2.06921,4.112,4.60886,7.65347,9.03617,9.61626,1.33857.59344,3.18892,2.01984,3.26225,3.16359.55483,8.64954,7.19688,13.96851,10.94794,20.84118.93817,1.71875,1.76582,3.92214,4.169,3.318,2.13278-.53617,1.5547-2.74645,1.82365-4.45235,1.95138-12.36875-8.65743-20.42277-10.80328-31.40142C161.28564,434.53491,159.16706,433.76567,157.90958,432.85829ZM99.69766,357.273c-1.891,3.5777-10.41335,3.9756-14.74049,8.21677-.83641.81976-1.83355-.01449-2.59677-.59961-2.66709-2.04409-5.40121-1.82795-8.51592.55311.5333-9.10943-1.36656-16.29841-5.5641-22.86188a4.93785,4.93785,0,0,1-.71127-3.29125c.10075-1.36117.7394-3.23914.09243-4.01-4.72884-5.63514-3.64113-13.03581-6.1904-19.2636-1.91177-4.67064-.96672-6.6391,3.96849-6.37675,2.86.152,5.76143.12,7.60116-2.12791,4.2185-5.15465,9.7582-3.83983,15.13888-3.6943a3.59719,3.59719,0,0,1,3.341,1.91349c2.02558,3.51864,4.53165,5.63184,9.09372,4.18542,2.09017-.66269,2.99776,1.58025,3.11415,3.356.09946,1.51789-.7945,3.54.62731,4.3971,6.56612,3.958,5.49219,11.13293,5.45818,16.50443C109.75982,342.698,103.57545,349.93708,99.69766,357.273Z" transform="translate(-33.65911 -258.99988)"/>
    <path class="cls-1" d="M544.21832,437.098c-1.10593-1.597-2.03548-3.6097-1.54207-5.54874,1.612-6.33514,1.72879-12.2398-2.85639-17.62529-.7968-.93587-.56818-3.062-.28459-4.53667a13.46141,13.46141,0,0,0-1.61025-9.61641c-1.92885-3.32992-1.80729-6.65862-.51436-10.15846,1.35106-3.657,3.00751-7.28363,2.92657-11.29022-.20063-9.92705-1.624-19.72407-2.83673-29.56629-.76982-6.24824-3.65678-12.10346-3.44882-18.30771a72.68937,72.68937,0,0,0-2.61514-21.46541c-2.71661-10.10923-1.14712-19.782,2.38221-29.30171,1.49414-4.02978,3.37549-7.915,5.04084-11.88259,1.29265-3.07956,1.3192-6.06145-.897-8.79865h-2.35107c-6.1726,7.94889-13.694,15.1452-14.1436,26.22051a9.99031,9.99031,0,0,1-2.7456,6.38766c-6.42691,6.71394-8.53,15.154-10.305,23.87489-1.12315,5.519-1.83183,11.42678-5.72426,15.84383-5.78454,6.56419-7.42937,14.45776-8.30912,22.71278-.64482,6.05054-1.25045,12.10517-1.97607,19.15452-2.5873-3.03385-2.26711-5.48955-2.80688-7.7309-2.30959-9.59244.86626-19.64212-3.45327-29.24424-4.03436-8.96843-.17293-20.03786-6.57732-28.78592-.80569-1.10062-.23278-3.47853.17366-5.14977,1.38478-5.69513,2.92513-11.35466,4.52275-16.99483.67294-2.37633,1.43731-4.8049-1.43114-6.07286-2.97049-1.31317-4.05518,1.32307-5.45359,3.156-5.86175,7.68225-6.691,17.90443-13.334,25.17414-8.96528-4.79242-9.09344-4.82908-12.19165,6.0006-2.25721,7.89049-3.43117,16.15641-6.3365,23.77917-3.49145,9.16038-3.97509,18.08669-2.33686,27.6083,1.20624,7.01067.7147,14.13521-4.39029,19.97931-5.90566,6.76058-6.71122,14.30025-3.48283,22.46076,1.31718,3.32992,2.36255,6.8078,1.49026,10.31489-2.47019,9.93228,1.37258,19.77573.17251,29.67758a3.49294,3.49294,0,0,0,2.69522,4.05159c2.08815.37422,3.40132-1.53325,3.74116-3.11357,1.98741-9.24111,7.515-17.93449,5.00209-27.88421-1.56073-6.18007.23336-11.17039,4.2983-15.60746,2.06633-2.25571,3.62836-4.65493,3.39156-7.82189-.81517-10.89749,2.37346-21.30718,3.963-31.89863.849-5.65616,1.60767-11.05916.02971-16.78773-1.90287-6.908,1.595-12.84665,4.38469-18.89792-.23407,6.91788-.11668,13.48315,5.28123,18.52808,5.546,5.18342,5.45216,12.43727,7.58221,18.96027,2.63151,8.05761,5.14346,15.951,4.62063,24.55264-.11854,1.94722.30971,4.58791,2.16163,5.1591,5.84324,1.80227,5.49033,6.723,6.507,11.15181.74011,3.22415,1.63751,7.11062,6.0265,6.58205,4.29055-.51658,3.6265-4.44582,3.72538-7.49137.3763-11.59046,6.722-21.96183,6.83636-33.648.01594-1.63558,1.86456-3.33394,3.04684-4.86245,3.75365-4.85291,5.83176-10.06209,4.55748-16.37032a19.70321,19.70321,0,0,1,1.14511-11.41322c8.27023,7.03485,7.31872,15.32021,3.44208,24.39707-1.94062,4.54385,2.0062,35.77255,4.19037,40.29637a17.60352,17.60352,0,0,0,2.34992,4.0419,9.28844,9.28844,0,0,1,2.00678,9.79013c-2.79368,8.29363,4.53882,14.16427,5.25224,21.63132.02913.30533.46556.64323.789.83813,4.05775,2.44356,5.69369,5.71572,5.1822,10.69133-.55153,5.3649,4.68779,2.75866,7.04,3.60784,2.313.83505,2.24559-2.24465,2.06663-4.24978C547.83334,446.50655,547.26358,441.49563,544.21832,437.098Z" transform="translate(-33.65911 -258.99988)"/>
    <path class="cls-1" d="M771.37935,361.37915a111.0179,111.0179,0,0,1-36.94105,18.80434c-.36137-1.52995.14208-3.58-1.07593-5.302-5.09065-7.19659-6.3797-15.33658-5.94069-23.93954.11725-2.29561.4924-4.89532-1.39655-6.698-4.81667-4.59666-5.97125-10.764-7.55638-16.77718a69.18337,69.18337,0,0,0-7.1808-17.88743c-.58224-.98035-1.34575-2.15194-2.69852-1.90215-1.03676.19145-1.43947,1.23151-1.49343,2.2707-.35276,6.81936-1.403,13.67079-1.957,20.31958-1.25346,15.04187,2.17943,30.15176,5.112,45.051a4.60257,4.60257,0,0,0,1.953,2.75514c2.47808,1.45769,2.07825,3.26936,1.40731,5.52219-1.44821,4.86217-3.7248,9.81145-3.66223,14.69944.06789,5.29214-1.80112,7.40368-6.41026,8.42164a20.10527,20.10527,0,0,0-4.90565,1.91306c-1.63909.86-4.83691,1.3451-4.12206,3.42027,1.51754,4.40449-2.11456,4.6499-4.03307,6.4028-3.75049,3.42665-9.2447,6.035-5.55176,12.85318.97419,1.79868-.94792,3.13087-2.20971,4.37278-3.464,3.4095-6.86994,7.15863-10.51725,10.03819-4.95387,3.91109-7.046,10.4437-13.236,12.96994-6.27493,2.56074-11.06519,7.27745-15.87985,11.89055-2.74,2.6254-3.9441,5.663-2.84965,9.42244H644.936c6.42088-6.64979,13.1311-12.75688,22.86576-14.14992a13.20248,13.20248,0,0,0,5.9005-2.4234c12.44667-9.48918,21.4606-22.01529,29.6483-35.065,2.24975-3.58573,4.21979-7.09289,7.91833-9.04808,12.06234-6.37647,18.40329-20.33458,32.28813-24.26331a2.43452,2.43452,0,0,0,1.28361-1.17088c3.76642-7.33558,10.70425-11.0362,17.28616-15.13773A168.99086,168.99086,0,0,0,786,360.09569v-3.52661C780.27646,355.55816,775.38114,358.27117,771.37935,361.37915Z" transform="translate(-33.65911 -258.99988)"/>
    <path class="cls-1" d="M287.5248,326.39378c-5.02362.93479-9.09027,3.79075-12.53895,7.2428-7.12627,7.133-16.72933,10.48539-24.51849,16.58294-1.37646,1.07759-3.54139,2.62389-5.35213,1.25655-1.90258-1.43659-.6075-3.56471.02311-5.39461.7681-2.22858,1.70726-4.56559,1.12861-6.87827-1.82179-7.28219-2.35165-14.42941-.38663-21.86179.76809-2.90584.93916-7.21654-3.66884-7.93713-5.00955-.78338-10.17123,2.93561-9.81746,7.25263,1.369,16.70492-4.72382,31.93946-8.82693,47.57483-.69462,2.64736-2.047,5.64038.95151,7.41567,3.13309,1.85479,4.24-1.5997,6.01474-3.16689a6.53564,6.53564,0,0,1,1.48753-.74886c.68012,1.69362-.29061,3.20606-.20881,4.70013.29507,5.38248-3.90047,10.18322-2.69953,15.25327a25.53145,25.53145,0,0,1,.26292,9.68414c-.866,6.62418-2.89758,12.95529-4.63971,19.35709-1.07307,3.943-.19016,7.80711,3.518,8.77483,3.35124.87451,4.11115-3.30645,5.26616-5.91183,3.28077-7.39916,4.93177-15.25815,6.06641-23.1871.5577-3.89709,3.98428-3.95557,6.15481-5.33856,2.20526-1.40509,2.12575,1.98891,3.21015,3.08322,7.29246,7.35847,8.25459,18.04091,13.89934,26.54456a69.83656,69.83656,0,0,1,10.48453,25.1839c.62028,3.25321,2.575,3.33171,5.10772,1.44276,4.65823-3.4743,5.79085-7.707,3.82268-13.163a111.30871,111.30871,0,0,1-5.792-23.27184c-.81632-6.1749-5.31352-11.24093-6.59239-17.43987a3.687,3.687,0,0,0-2.39082-2.35968c-8.47532-1.33749-11.00707-8.81623-14.98073-14.58441-4.7485-6.89277-4.11689-8.56049,3.63926-11.4049,5.94471-2.18021,10.09862-5.72562,11.63452-12.07087.56316-2.32675,1.81117-4.672,4.07412-5.50548,8.49469-3.12871,11.52344-12.01749,18.26724-16.95471,1.03561-.75819,2.14484-1.95712,1.13865-3.50078C290.307,325.59519,288.83252,326.15045,287.5248,326.39378Z" transform="translate(-33.65911 -258.99988)"/>
    <path class="cls-1" d="M401.60791,401.52562c-4.74692-10.84641-3.88009-21.75022-.55842-32.71136.57019-1.88135,1.567-4.01033.58956-5.70661-2.70125-4.68744-1.04809-9.11826.21083-13.61353.81674-2.91588,1.98051-6.27156-1.97435-7.34053-3.65017-.98667-5.13857,2.41759-6.02378,5.13671-1.51035,4.63856-2.459,9.458-3.6994,14.1868-3.42241,13.04714-7.66215,19.125-17.9073,25.51247,1.286-7.14521,2.51741-14.05663,3.77863-20.96253.56573-3.09771,1.662-6.943-2.07811-8.18053-4.664-1.54315-4.95444,3.27094-6.26158,6.03533-1.71961,3.6364-3.08616,7.43985-4.41583,10.708-6.47557-1.92835-8.39208-6.69436-9.78992-11.98865a3.3755,3.3755,0,0,0-4.07211-2.58342c-2.23454.433-2.5164,2.33478-2.60366,4.07907-.21513,4.29829-.35477,8.60691-.31286,12.90937.02784,2.83945-.17739,5.46457-2.90835,7.655-1.81877-1.624-1.97247-3.61788-2.40173-5.521a193.51528,193.51528,0,0,1-4.50524-26.00043c-.17494-2.04093.02024-4.82915-2.70929-5.2277-2.70914-.39552-4.14559,1.81849-5.06782,4.10189-.65687,1.626-1.10392,3.33552-1.69606,4.98932-.51508,1.4386-.90817,2.74581-2.68461,3.50838-6.20073,2.66229-7.82934,8.806-7.0047,14.0984.9561,6.13457.07175,11.62225-2.81922,16.29454-3.89516,6.29474-1.4874,12.05359-.5158,18.0712a2.81062,2.81062,0,0,0,2.71058,2.64513c1.37617.0348,1.88651-1.04128,2.53922-2.06727,3.14572-4.94447,3.09821-10.98985,5.67834-16.15153.93026-1.86132.92151-4.843,3.29741-4.92775,2.6559-.09472,3.39874,2.66279,4.21706,4.95588,1.70612,4.78129,3.60454,9.49592,5.51143,14.20259.67467,1.66507,1.63393,3.33487,3.86875,2.75155,2.13063-.55612,2.31175-2.389,2.31046-4.2266-.00287-4.07613-.00086-8.15226-.00086-12.90284,2.26424,1.78009,1.88206,3.41215,1.90158,4.8984.03774,2.87225,1.26667,5.50576,4.10009,5.4909,2.869-.015,3.94352-2.87174,4.11086-5.573.22647-3.66309.85722-7.35575-.37371-11.16666,5.09121,3.61071,6.99552,9.21772,9.82493,14.1817,1.408,2.47055,2.81707,5.458,5.93939,1.82667,1.82437-2.122,1.83743-.22152,2.67714.742,5.76387,6.61484,11.933,7.172,19.2661,1.84589.47318,1.28418.85737,2.60416,1.43344,3.83431,1.29336,2.76224,2.93145,5.552,6.5291,4.54679,3.60539-1.00748,3.68634-4.15736,3.13265-7.24445A22.77867,22.77867,0,0,0,401.60791,401.52562ZM330.819,377.63a6.42686,6.42686,0,0,1-3.95228-.22941c-1.12616-.44863-.39179-1.69994-.07233-2.5408.73394-1.931,1.568-3.82383,2.62275-6.36011.65931,2.58909,1.20438,4.4347,1.57623,6.31454C331.17908,375.75259,332.63748,377.08269,330.819,377.63Zm56.0513,18.43278c-1.16492,1.09222-2.11485,3.45356-4.18879,2.11893-1.74716-1.12437-.88248-3.18626-.58827-4.89646.67811-3.94173,4.20759-4.62759,6.919-6.75513C390.503,390.65245,389.48486,393.61159,386.8703,396.06277Z" transform="translate(-33.65911 -258.99988)"/>
    <path class="cls-1" d="M640.99675,421.66609c-4.51026-10.35608-.61353-22.74169-7.8879-32.4122-.19073-.25359-.09128-.77326-.03674-1.156.49025-3.43677-1.56317-5.84976-3.14256-8.56917-1.44362-2.4859-6.13687-3.575-4.90493-6.40876,1.02613-2.36026,4.86575-3.529,7.51189-5.13865a27.27456,27.27456,0,0,1,3.6895-1.77578c8.83022-3.68678,10.79007-10.28232,5.4444-18.30348-1.81863-2.72887-3.77876-5.19246-2.68933-9.081.91663-3.27165-1.87216-5.24621-4.67273-5.60521-8.1801-1.0486-17.19775-4.02576-21.547,7.00607-.18213.46219-.83871.73738-1.59432,1.366-1.927-3.16337-1.09818-6.27436-1.89971-9.06071-.562-1.95389-.288-4.88635-3.21949-4.85018-3.06922.03789-3.27388,2.63832-3.44853,5.13348a277.651,277.651,0,0,1-3.1783,29.74733c-.45308,2.52451-.8743,5.60213,1.39684,7.14873,4.21964,2.87339,3.293,6.0166,1.63277,9.66017-.54406,1.194-1.1276,2.88481-.69045,3.92853,3.12749,7.467-.09415,15.08728.76408,22.5958.33123,2.89844-.53273,6.564,3.5632,6.81427,3.98457.24354,4.37723-3.52833,4.513-6.34282.2932-6.07551,2.97034-11.41171,4.34379-18.42632,6.5278,8.15879,13.89159,14.14009,14.46852,24.57073.22274,4.02733,1.57924,8.06744,2.90633,11.93446,1.06618,3.1069,2.69479,6.93446,6.8843,5.60981C643.692,428.63205,642.34034,424.751,640.99675,421.66609ZM623.84033,357.6532c-.05425,2.08642-1.13794,4.30331-2.91021,4.69331-2.45039.53933-3.15361-2.44428-4.573-3.89867-1.961-2.00943-.01579-2.97328,1.43286-3.95694,2.57467-1.7483,2.39886-7.09842,8.13159-5.688C623.11184,351.52522,623.91811,354.64475,623.84033,357.6532Z" transform="translate(-33.65911 -258.99988)"/>
    <path class="cls-1" d="M590.867,370.54843c3.8864-7.25852,1.10981-14.26832-1.68057-20.85525-2.6249-6.19622-13.35756-10.83485-18.53819-7.68218a57.72956,57.72956,0,0,0-19.207,19.88875c-1.709,2.85036-2.22593,6.55679-4.234,9.52075a6.69185,6.69185,0,0,0-.15887,7.75372,16.37164,16.37164,0,0,1,2.7631,11.02558c-.33353,4.42458-1.50705,8.58933.60621,10.39,4.694,3.99964,11.92242,4.06573,16.05767,9.54537.86368,1.14439,2.96647.15923,4.5061.14308,9.87574-.10376,15.29058-6.78211,20.56048-13.71707,5.0493-6.6447,5.30734-9.58935.53775-16.31062C589.80662,377.04717,588.93591,374.15526,590.867,370.54843ZM571.5467,391.78278c-3.616-.53991-11.62677-12.12728-10.088-15.43474,2.2951-4.93285,5.62208-9.387,6.687-15.28994-.62788,5.27707.61453,9.17574,5.18809,11.77007a2.91514,2.91514,0,0,1,1.29393,2.38559c-1.48237,4.77914-1.89412,9.40967-.10189,14.28281C575.28743,391.56757,573.23358,392.03465,571.5467,391.78278Z" transform="translate(-33.65911 -258.99988)"/>
    <path class="cls-1" d="M640.13193,374.92867a3.327,3.327,0,0,0,3.26139,3.499c2.99445.28875,5.58519,1.50533,8.293,2.68015,2.89528,1.25619,4.52361,2.29654,2.79281,5.82838-3.643,7.43332-1.71874,15.621-1.45927,23.22154a104.72748,104.72748,0,0,1-.75288,19.68682,29.51606,29.51606,0,0,0,.18915,11.66781c.36941,1.47384.96988,3.19452,2.83042,3.35655,2.04882.17839,2.36241-1.60774,2.89915-3.08257a53.67358,53.67358,0,0,0,3.5546-17.74642c.08869-7.31729,3.97437-14.00461,4.07986-21.04355.102-6.80134,2.83874-13.23163,1.68272-20.47,6.145,5.5199,14.18881,2.2786,20.736,5.87625,5.2851,2.904,6.28742-3.5729,8.84888-6.16177,1.59618-1.61326-.041-3.64831-1.60479-4.26335-8.12958-3.19745-15.96754-7.626-24.97917-7.70212-3.86545-.03272-3.99921-1.64849-2.77215-4.26292,3.18906-6.79445,3.25608-14.48366,6.282-21.33028.7833-1.77235,1.11224-4.402-.20939-5.65165-4.51429-4.26865-1.31518-7.63983.71026-11.28319a19.75926,19.75926,0,0,0,1.96558-4.23328c.51723-1.88759.84129-4.00093-1.30914-5.2264a4.42006,4.42006,0,0,0-5.42977.75919,16.39786,16.39786,0,0,0-3.05014,4.21154,92.66848,92.66848,0,0,0-9.68027,30.5663c-1.29623,8.71922-1.93774,17.76034-14.0473,18.034A2.72191,2.72191,0,0,0,640.13193,374.92867Z" transform="translate(-33.65911 -258.99988)"/>
    <path class="cls-1" d="M214.36846,392.01663c-2.25305,1.34231-4.39488,1.51661-6.57918.01672-5.71652-3.92515-11.465-2.85093-17.20207-.09744-1.21184.58159-2.40288,1.74543-3.61558.30877-1.00045-1.18515-.56015-2.60481.09385-3.85583.99529-1.904,2.0639-3.76965,3.09262-5.65631,1.06776-1.958,2.16666-4.45329.35535-5.98352-5.05764-4.27282-1.06446-6.59411,1.60263-9.20387,3.06521-2.9994,7.90986-5.348,9.01006-8.89976,1.45553-4.69978,3.98686-4.51938,7.2946-4.56753,3.8379-.0559,7.49841-.678,9.95912-3.96842,1.92684-2.57675,1.61771-5.37552-1.79423-5.70948-5.13613-.50273-10.48065.89518-14.4457-2.15323a16.54759,16.54759,0,0,0-3.184.38562c-8.16431,3.14572-12.40118,11.35029-19.81706,15.5332-.80842.45594-.557,2.58758-1.04766,3.84406-2.65791,6.80415-2.59519,14.57989-7.69617,20.5553-1.56532,1.83377-3.21977,5.32063-.85951,6.83257,2.94078,1.884,2.01481,3.56327,1.318,5.58426-1.31676,3.8183.17035,5.53073,3.962,5.87007,1.6345.14632,4.52347-.39567,4.28738,1.79151-.55468,5.13879,4.93737,7.953,4.30719,13.0114a3.26079,3.26079,0,0,0,2.70168,3.41768c1.84619.32342,2.87806-1.01085,3.68577-2.3698.89611-1.50748,1.64785-3.10524,2.39786-4.69418,1.6266-3.44559,3.49489-5.47633,8.00185-6.33126,4.91283-.93184,9.61138-3.48046,14.86965-4.02116,2.11111-.21707,3.60038-2.1871,4.54112-4.25638.85105-1.87152,1.33785-3.7106-.07836-5.51567C217.77509,389.64748,215.98143,391.05565,214.36846,392.01663Z" transform="translate(-33.65911 -258.99988)"/>
    <path class="cls-1" d="M158.7645,363.21127a37.08,37.08,0,0,0,.67869-17.7879c-.488-2.69206-.55053-5.96953-3.84392-4.94138-3.13668.97921-8.93557-.49047-8.652,5.4998.24168,5.108-3.68577,10.61341,1.26523,15.431.42495.41347-.26091,2.26382-.76264,3.28349-2.27673,4.627-3.576,8.96564.68227,13.4515,1.00518,1.059.521,3.76083.33468,5.669-.2856,2.92176.215,5.85407.09386,8.6527-.25087,5.79846,3.77417,10.83069,2.23827,16.59377a56.43754,56.43754,0,0,0,.55985,7.06391c.39381,1.97219,1.67009,3.84672,3.93534,3.6567,1.94464-.16317,2.9989-1.9353,2.94064-3.83466a60.80631,60.80631,0,0,1,3.70557-21.78208,7.52,7.52,0,0,0-.32435-5.14173c-1.71415-3.64465-1.10765-6.70993,1.07063-9.8687,2.22621-3.22874,1.93846-6.23977-1.42655-8.64287A6.345,6.345,0,0,1,158.7645,363.21127Z" transform="translate(-33.65911 -258.99988)"/>
    <path class="cls-1" d="M151.79926,332.85292c3.26555.92187,6.99151-.16024,6.84225-3.38568-.25747-5.56446,7.09943-12.40261-2.16307-16.824-.382-.18241-.352-1.41829-.35836-2.16472-.02769-3.236-1.133-5.52391-4.84781-4.80239-3.55416.69024-5.45589,2.91344-4.87809,6.72471a30.65135,30.65135,0,0,0,.928,3.30531c-.79077,1.95418-1.893,4.23787-2.643,6.632C143.43862,326.29777,146.96164,331.48715,151.79926,332.85292Z" transform="translate(-33.65911 -258.99988)"/>
  </g>
</svg>
